STARTFONT 2.1
FONT -HP-HP System-Medium-R-Normal--19-140-85-85-P-110-ISO8859-5
SIZE 14 85 85
FONTBOUNDINGBOX 16 19 0 -4

STARTPROPERTIES 26
COPYRIGHT "Copyright (c) 1994-95, Hewlett-Packard Co. All rights reserved."
NOTICE "This Font is licensed for use on Hewlett-Packard Equipment only."
FONTNAME_REGISTRY ""
FAMILY_NAME "HP System"
FOUNDRY "HP"
WEIGHT_NAME "Medium"
SETWIDTH_NAME "Normal"
SLANT "R"
ADD_STYLE_NAME "Sans Serif"
PIXEL_SIZE 19
POINT_SIZE 140
RESOLUTION_X 85
RESOLUTION_Y 85
SPACING "P"
AVERAGE_WIDTH 110
CHARSET_REGISTRY "ISO8859"
CHARSET_ENCODING "5"
CHARSET_COLLECTIONS "ISO8859-5"
FULL_NAME "HP System19"
CAP_HEIGHT 12
X_HEIGHT 8
WEIGHT 10
QUAD_WIDTH 10
DEFAULT_CHAR 32
FONT_DESCENT 4
FONT_ASCENT 15
ENDPROPERTIES

CHARS 192

STARTCHAR space
ENCODING 32
SWIDTH 302 0
DWIDTH 5 0
BBX 1 1 0 0
BITMAP
00
ENDCHAR

STARTCHAR exclam
ENCODING 33
SWIDTH 363 0
DWIDTH 6 0
BBX 2 14 2 -1
BITMAP
C0
C0
C0
C0
C0
C0
C0
C0
C0
C0
00
00
C0
C0
ENDCHAR

STARTCHAR quotedbl
ENCODING 34
SWIDTH 302 0
DWIDTH 5 0
BBX 3 4 1 9
BITMAP
A0
A0
A0
A0
ENDCHAR

STARTCHAR numbersign
ENCODING 35
SWIDTH 726 0
DWIDTH 12 0
BBX 12 14 0 -1
BITMAP
0440
0CC0
0CC0
0CC0
7FF0
1980
1980
1980
1980
FFE0
3300
3300
3300
2200
ENDCHAR

STARTCHAR dollar
ENCODING 36
SWIDTH 605 0
DWIDTH 10 0
BBX 8 16 1 -2
BITMAP
08
08
3C
6E
CB
C8
C8
78
1E
13
13
D3
76
3C
10
10
ENDCHAR

STARTCHAR percent
ENCODING 37
SWIDTH 786 0
DWIDTH 13 0
BBX 11 15 1 -1
BITMAP
70C0
D880
D980
D900
DB00
7200
0600
0400
0C00
09C0
1B60
1360
3360
2360
61C0
ENDCHAR

STARTCHAR ampersand
ENCODING 38
SWIDTH 665 0
DWIDTH 11 0
BBX 9 14 1 -1
BITMAP
3C00
6600
C000
C000
C200
6300
7F80
6300
C300
C300
C300
C300
E380
7E00
ENDCHAR

STARTCHAR apostrophe
ENCODING 39
SWIDTH 302 0
DWIDTH 5 0
BBX 3 5 1 8
BITMAP
60
60
60
C0
80
ENDCHAR

STARTCHAR parenleft
ENCODING 40
SWIDTH 423 0
DWIDTH 7 0
BBX 5 16 2 -2
BITMAP
18
30
60
60
C0
C0
C0
C0
C0
C0
C0
C0
60
60
30
18
ENDCHAR

STARTCHAR parenright
ENCODING 41
SWIDTH 423 0
DWIDTH 7 0
BBX 5 16 1 -2
BITMAP
C0
60
30
30
18
18
18
18
18
18
18
18
30
30
60
C0
ENDCHAR

STARTCHAR asterisk
ENCODING 42
SWIDTH 847 0
DWIDTH 14 0
BBX 10 11 2 0
BITMAP
0C00
0C00
CCC0
EDC0
7F80
1E00
7F80
EDC0
CCC0
0C00
0C00
ENDCHAR

STARTCHAR plus
ENCODING 43
SWIDTH 847 0
DWIDTH 14 0
BBX 10 10 2 1
BITMAP
0C00
0C00
0C00
0C00
FFC0
FFC0
0C00
0C00
0C00
0C00
ENDCHAR

STARTCHAR comma
ENCODING 44
SWIDTH 302 0
DWIDTH 5 0
BBX 3 5 1 -2
BITMAP
60
60
60
C0
80
ENDCHAR

STARTCHAR minus
ENCODING 45
SWIDTH 847 0
DWIDTH 14 0
BBX 10 2 2 5
BITMAP
FFC0
FFC0
ENDCHAR

STARTCHAR period
ENCODING 46
SWIDTH 363 0
DWIDTH 6 0
BBX 2 3 2 0
BITMAP
C0
C0
C0
ENDCHAR

STARTCHAR slash
ENCODING 47
SWIDTH 544 0
DWIDTH 9 0
BBX 9 16 0 -2
BITMAP
0180
0180
0300
0300
0600
0600
0C00
0C00
1800
1800
3000
3000
6000
6000
C000
C000
ENDCHAR

STARTCHAR 0
ENCODING 48
SWIDTH 605 0
DWIDTH 10 0
BBX 8 12 1 0
BITMAP
3C
66
42
C3
C3
C3
C3
C3
C3
42
66
3C
ENDCHAR

STARTCHAR 1
ENCODING 49
SWIDTH 605 0
DWIDTH 10 0
BBX 5 12 2 0
BITMAP
18
38
78
D8
18
18
18
18
18
18
18
18
ENDCHAR

STARTCHAR 2
ENCODING 50
SWIDTH 605 0
DWIDTH 10 0
BBX 8 12 1 0
BITMAP
3C
66
C3
C3
03
06
0C
18
30
60
C0
FF
ENDCHAR

STARTCHAR 3
ENCODING 51
SWIDTH 605 0
DWIDTH 10 0
BBX 8 12 1 0
BITMAP
3C
66
C3
C3
06
1C
06
03
C3
C3
66
3C
ENDCHAR

STARTCHAR 4
ENCODING 52
SWIDTH 605 0
DWIDTH 10 0
BBX 8 12 1 0
BITMAP
0E
0E
1E
36
26
66
46
C6
FF
06
06
06
ENDCHAR

STARTCHAR 5
ENCODING 53
SWIDTH 605 0
DWIDTH 10 0
BBX 8 12 1 0
BITMAP
FE
C0
C0
C0
FC
E6
03
03
03
C3
66
3C
ENDCHAR

STARTCHAR 6
ENCODING 54
SWIDTH 605 0
DWIDTH 10 0
BBX 8 12 1 0
BITMAP
3C
66
42
C0
DC
E6
C3
C3
C3
C3
66
3C
ENDCHAR

STARTCHAR 7
ENCODING 55
SWIDTH 605 0
DWIDTH 10 0
BBX 8 12 1 0
BITMAP
FF
03
06
06
0C
0C
18
18
18
30
30
30
ENDCHAR

STARTCHAR 8
ENCODING 56
SWIDTH 605 0
DWIDTH 10 0
BBX 8 12 1 0
BITMAP
3C
66
C3
C3
66
3C
66
C3
C3
C3
66
3C
ENDCHAR

STARTCHAR 9
ENCODING 57
SWIDTH 605 0
DWIDTH 10 0
BBX 8 12 1 0
BITMAP
3C
66
C3
C3
C3
C3
67
3B
03
C2
66
3C
ENDCHAR

STARTCHAR colon
ENCODING 58
SWIDTH 363 0
DWIDTH 6 0
BBX 2 8 2 0
BITMAP
C0
C0
C0
00
00
C0
C0
C0
ENDCHAR

STARTCHAR semicolon
ENCODING 59
SWIDTH 363 0
DWIDTH 6 0
BBX 3 10 1 -2
BITMAP
60
60
60
00
00
60
60
60
C0
80
ENDCHAR

STARTCHAR less
ENCODING 60
SWIDTH 847 0
DWIDTH 14 0
BBX 10 10 2 1
BITMAP
00C0
03C0
0F00
3C00
F000
F000
3C00
0F00
03C0
00C0
ENDCHAR

STARTCHAR equal
ENCODING 61
SWIDTH 847 0
DWIDTH 14 0
BBX 10 6 2 3
BITMAP
FFC0
FFC0
0000
0000
FFC0
FFC0
ENDCHAR

STARTCHAR greater
ENCODING 62
SWIDTH 847 0
DWIDTH 14 0
BBX 10 10 2 1
BITMAP
C000
F000
3C00
0F00
03C0
03C0
0F00
3C00
F000
C000
ENDCHAR

STARTCHAR question
ENCODING 63
SWIDTH 544 0
DWIDTH 9 0
BBX 7 14 1 -1
BITMAP
7C
C6
C6
06
06
0C
18
30
30
30
00
00
30
30
ENDCHAR

STARTCHAR at
ENCODING 64
SWIDTH 968 0
DWIDTH 16 0
BBX 12 14 2 -1
BITMAP
0F80
38C0
6060
6060
C7E0
CC60
CC60
CC60
CC60
CC60
67B0
6000
3800
0FC0
ENDCHAR

STARTCHAR A
ENCODING 65
SWIDTH 726 0
DWIDTH 12 0
BBX 12 12 0 0
BITMAP
0600
0600
0F00
0F00
1980
1980
30C0
30C0
7FE0
6060
C030
C030
ENDCHAR

STARTCHAR B
ENCODING 66
SWIDTH 605 0
DWIDTH 10 0
BBX 8 12 1 0
BITMAP
FC
C6
C3
C3
C6
FC
C6
C3
C3
C3
C6
FC
ENDCHAR

STARTCHAR C
ENCODING 67
SWIDTH 726 0
DWIDTH 12 0
BBX 10 12 1 0
BITMAP
1F00
71C0
60C0
C000
C000
C000
C000
C000
C000
60C0
71C0
1F00
ENDCHAR

STARTCHAR D
ENCODING 68
SWIDTH 665 0
DWIDTH 11 0
BBX 9 12 1 0
BITMAP
FC00
C700
C300
C180
C180
C180
C180
C180
C180
C300
C700
FC00
ENDCHAR

STARTCHAR E
ENCODING 69
SWIDTH 544 0
DWIDTH 9 0
BBX 7 12 1 0
BITMAP
FE
C0
C0
C0
C0
FE
C0
C0
C0
C0
C0
FE
ENDCHAR

STARTCHAR F
ENCODING 70
SWIDTH 544 0
DWIDTH 9 0
BBX 7 12 1 0
BITMAP
FE
C0
C0
C0
C0
FE
C0
C0
C0
C0
C0
C0
ENDCHAR

STARTCHAR G
ENCODING 71
SWIDTH 726 0
DWIDTH 12 0
BBX 10 12 1 0
BITMAP
1F00
71C0
60C0
C000
C000
C000
C7C0
C0C0
C0C0
60C0
70C0
1F80
ENDCHAR

STARTCHAR H
ENCODING 72
SWIDTH 665 0
DWIDTH 11 0
BBX 9 12 1 0
BITMAP
C180
C180
C180
C180
C180
FF80
C180
C180
C180
C180
C180
C180
ENDCHAR

STARTCHAR I
ENCODING 73
SWIDTH 242 0
DWIDTH 4 0
BBX 2 12 1 0
BITMAP
C0
C0
C0
C0
C0
C0
C0
C0
C0
C0
C0
C0
ENDCHAR

STARTCHAR J
ENCODING 74
SWIDTH 544 0
DWIDTH 9 0
BBX 7 12 1 0
BITMAP
06
06
06
06
06
06
06
06
06
C6
C6
7C
ENDCHAR

STARTCHAR K
ENCODING 75
SWIDTH 665 0
DWIDTH 11 0
BBX 9 12 1 0
BITMAP
C180
C300
C600
CC00
D800
F000
F000
D800
CC00
C600
C300
C180
ENDCHAR

STARTCHAR L
ENCODING 76
SWIDTH 544 0
DWIDTH 9 0
BBX 7 12 1 0
BITMAP
C0
C0
C0
C0
C0
C0
C0
C0
C0
C0
C0
FE
ENDCHAR

STARTCHAR M
ENCODING 77
SWIDTH 847 0
DWIDTH 14 0
BBX 12 12 1 0
BITMAP
C030
C030
E070
E070
F0F0
D0B0
D9B0
C930
CF30
C630
C630
C030
ENDCHAR

STARTCHAR N
ENCODING 78
SWIDTH 726 0
DWIDTH 12 0
BBX 10 12 1 0
BITMAP
C0C0
E0C0
F0C0
F0C0
D8C0
CCC0
CCC0
C6C0
C3C0
C1C0
C1C0
C0C0
ENDCHAR

STARTCHAR O
ENCODING 79
SWIDTH 786 0
DWIDTH 13 0
BBX 11 12 1 0
BITMAP
1F00
71C0
60C0
C060
C060
C060
C060
C060
C060
60C0
71C0
1F00
ENDCHAR

STARTCHAR P
ENCODING 80
SWIDTH 605 0
DWIDTH 10 0
BBX 8 12 1 0
BITMAP
FC
C6
C3
C3
C3
C6
FC
C0
C0
C0
C0
C0
ENDCHAR

STARTCHAR Q
ENCODING 81
SWIDTH 786 0
DWIDTH 13 0
BBX 11 14 1 -2
BITMAP
1F00
71C0
60C0
C060
C060
C060
C060
C060
C060
66C0
73C0
1F80
00C0
0060
ENDCHAR

STARTCHAR R
ENCODING 82
SWIDTH 605 0
DWIDTH 10 0
BBX 8 12 1 0
BITMAP
FC
C6
C3
C3
C3
C6
FE
C3
C3
C3
C3
C3
ENDCHAR

STARTCHAR S
ENCODING 83
SWIDTH 665 0
DWIDTH 11 0
BBX 9 12 1 0
BITMAP
3C00
6700
C300
C000
E000
7C00
1F00
0380
0180
C180
E300
3E00
ENDCHAR

STARTCHAR T
ENCODING 84
SWIDTH 605 0
DWIDTH 10 0
BBX 10 12 0 0
BITMAP
FFC0
0C00
0C00
0C00
0C00
0C00
0C00
0C00
0C00
0C00
0C00
0C00
ENDCHAR

STARTCHAR U
ENCODING 85
SWIDTH 726 0
DWIDTH 12 0
BBX 10 12 1 0
BITMAP
C0C0
C0C0
C0C0
C0C0
C0C0
C0C0
C0C0
C0C0
C0C0
6180
7380
1E00
ENDCHAR

STARTCHAR V
ENCODING 86
SWIDTH 726 0
DWIDTH 12 0
BBX 12 12 0 0
BITMAP
C030
C030
6060
6060
30C0
30C0
1980
1980
0F00
0F00
0600
0600
ENDCHAR

STARTCHAR W
ENCODING 87
SWIDTH 907 0
DWIDTH 15 0
BBX 15 12 0 0
BITMAP
C106
C106
C386
638C
628C
66CC
36D8
3458
3C78
1C70
1830
1830
ENDCHAR

STARTCHAR X
ENCODING 88
SWIDTH 786 0
DWIDTH 13 0
BBX 13 12 0 0
BITMAP
C018
6030
3060
18C0
0D80
0700
0700
0D80
18C0
3060
6030
C018
ENDCHAR

STARTCHAR Y
ENCODING 89
SWIDTH 726 0
DWIDTH 12 0
BBX 10 12 1 0
BITMAP
C0C0
C0C0
6180
3300
3F00
1E00
0C00
0C00
0C00
0C00
0C00
0C00
ENDCHAR

STARTCHAR Z
ENCODING 90
SWIDTH 665 0
DWIDTH 11 0
BBX 9 12 1 0
BITMAP
FF80
0180
0300
0600
0600
0C00
1800
3000
3000
6000
C000
FF80
ENDCHAR

STARTCHAR bracketleft
ENCODING 91
SWIDTH 423 0
DWIDTH 7 0
BBX 4 16 2 -2
BITMAP
F0
C0
C0
C0
C0
C0
C0
C0
C0
C0
C0
C0
C0
C0
C0
F0
ENDCHAR

STARTCHAR backslash
ENCODING 92
SWIDTH 544 0
DWIDTH 9 0
BBX 9 16 0 -2
BITMAP
C000
C000
6000
6000
3000
3000
1800
1800
0C00
0C00
0600
0600
0300
0300
0180
0180
ENDCHAR

STARTCHAR bracketright
ENCODING 93
SWIDTH 423 0
DWIDTH 7 0
BBX 4 16 1 -2
BITMAP
F0
30
30
30
30
30
30
30
30
30
30
30
30
30
30
F0
ENDCHAR

STARTCHAR asciicircum
ENCODING 94
SWIDTH 665 0
DWIDTH 11 0
BBX 7 4 2 8
BITMAP
10
38
6C
C6
ENDCHAR

STARTCHAR underscore
ENCODING 95
SWIDTH 484 0
DWIDTH 8 0
BBX 8 1 0 -1
BITMAP
FF
ENDCHAR

STARTCHAR grave
ENCODING 96
SWIDTH 302 0
DWIDTH 5 0
BBX 3 5 1 8
BITMAP
20
60
C0
C0
C0
ENDCHAR

STARTCHAR a
ENCODING 97
SWIDTH 544 0
DWIDTH 9 0
BBX 7 8 1 0
BITMAP
3C
66
06
7E
C6
C6
CE
76
ENDCHAR

STARTCHAR b
ENCODING 98
SWIDTH 605 0
DWIDTH 10 0
BBX 8 12 1 0
BITMAP
C0
C0
C0
C0
DC
E6
C3
C3
C3
C3
E6
DC
ENDCHAR

STARTCHAR c
ENCODING 99
SWIDTH 544 0
DWIDTH 9 0
BBX 7 8 1 0
BITMAP
3C
66
C2
C0
C0
C2
66
3C
ENDCHAR

STARTCHAR d
ENCODING 100
SWIDTH 605 0
DWIDTH 10 0
BBX 8 12 1 0
BITMAP
03
03
03
03
3B
67
C3
C3
C3
C3
67
3B
ENDCHAR

STARTCHAR e
ENCODING 101
SWIDTH 605 0
DWIDTH 10 0
BBX 8 8 1 0
BITMAP
3C
66
C3
FF
C0
C0
63
3E
ENDCHAR

STARTCHAR f
ENCODING 102
SWIDTH 302 0
DWIDTH 5 0
BBX 5 12 0 0
BITMAP
38
60
60
60
F8
60
60
60
60
60
60
60
ENDCHAR

STARTCHAR g
ENCODING 103
SWIDTH 605 0
DWIDTH 10 0
BBX 8 11 1 -3
BITMAP
3B
67
C3
C3
C3
C3
67
3B
03
66
3C
ENDCHAR

STARTCHAR h
ENCODING 104
SWIDTH 605 0
DWIDTH 10 0
BBX 8 12 1 0
BITMAP
C0
C0
C0
C0
DE
E3
C3
C3
C3
C3
C3
C3
ENDCHAR

STARTCHAR i
ENCODING 105
SWIDTH 242 0
DWIDTH 4 0
BBX 2 12 1 0
BITMAP
C0
C0
00
00
C0
C0
C0
C0
C0
C0
C0
C0
ENDCHAR

STARTCHAR j
ENCODING 106
SWIDTH 302 0
DWIDTH 5 0
BBX 3 15 1 -3
BITMAP
60
60
00
00
60
60
60
60
60
60
60
60
60
60
C0
ENDCHAR

STARTCHAR k
ENCODING 107
SWIDTH 544 0
DWIDTH 9 0
BBX 7 12 1 0
BITMAP
C0
C0
C0
C0
C6
CC
D8
F0
F0
D8
CC
C6
ENDCHAR

STARTCHAR l
ENCODING 108
SWIDTH 242 0
DWIDTH 4 0
BBX 2 12 1 0
BITMAP
C0
C0
C0
C0
C0
C0
C0
C0
C0
C0
C0
C0
ENDCHAR

STARTCHAR m
ENCODING 109
SWIDTH 847 0
DWIDTH 14 0
BBX 12 8 1 0
BITMAP
DDE0
E730
C630
C630
C630
C630
C630
C630
ENDCHAR

STARTCHAR n
ENCODING 110
SWIDTH 605 0
DWIDTH 10 0
BBX 8 8 1 0
BITMAP
DE
E3
C3
C3
C3
C3
C3
C3
ENDCHAR

STARTCHAR o
ENCODING 111
SWIDTH 605 0
DWIDTH 10 0
BBX 8 8 1 0
BITMAP
3C
66
C3
C3
C3
C3
66
3C
ENDCHAR

STARTCHAR p
ENCODING 112
SWIDTH 605 0
DWIDTH 10 0
BBX 8 11 1 -3
BITMAP
DC
E6
C3
C3
C3
C3
E6
DC
C0
C0
C0
ENDCHAR

STARTCHAR q
ENCODING 113
SWIDTH 605 0
DWIDTH 10 0
BBX 8 11 1 -3
BITMAP
3B
67
C3
C3
C3
C3
67
3B
03
03
03
ENDCHAR

STARTCHAR r
ENCODING 114
SWIDTH 363 0
DWIDTH 6 0
BBX 5 8 1 0
BITMAP
D8
E0
C0
C0
C0
C0
C0
C0
ENDCHAR

STARTCHAR s
ENCODING 115
SWIDTH 544 0
DWIDTH 9 0
BBX 7 8 1 0
BITMAP
7C
C6
E0
78
1C
0E
C6
7C
ENDCHAR

STARTCHAR t
ENCODING 116
SWIDTH 302 0
DWIDTH 5 0
BBX 5 11 0 0
BITMAP
20
60
60
F8
60
60
60
60
60
60
38
ENDCHAR

STARTCHAR u
ENCODING 117
SWIDTH 605 0
DWIDTH 10 0
BBX 8 8 1 0
BITMAP
C3
C3
C3
C3
C3
C3
C7
7B
ENDCHAR

STARTCHAR v
ENCODING 118
SWIDTH 605 0
DWIDTH 10 0
BBX 8 8 1 0
BITMAP
C3
C3
66
66
3C
3C
18
18
ENDCHAR

STARTCHAR w
ENCODING 119
SWIDTH 726 0
DWIDTH 12 0
BBX 12 8 0 0
BITMAP
C630
C630
C630
6F60
6960
39C0
30C0
30C0
ENDCHAR

STARTCHAR x
ENCODING 120
SWIDTH 544 0
DWIDTH 9 0
BBX 9 8 0 0
BITMAP
C180
6300
3600
1C00
1C00
3600
6300
C180
ENDCHAR

STARTCHAR y
ENCODING 121
SWIDTH 605 0
DWIDTH 10 0
BBX 8 11 1 -3
BITMAP
C3
C3
66
66
3C
3C
18
18
30
70
60
ENDCHAR

STARTCHAR z
ENCODING 122
SWIDTH 544 0
DWIDTH 9 0
BBX 7 8 1 0
BITMAP
FE
06
0C
18
30
60
C0
FE
ENDCHAR

STARTCHAR braceleft
ENCODING 123
SWIDTH 484 0
DWIDTH 8 0
BBX 6 16 1 -2
BITMAP
1C
30
30
30
30
30
20
C0
20
30
30
30
30
30
30
1C
ENDCHAR

STARTCHAR bar
ENCODING 124
SWIDTH 363 0
DWIDTH 6 0
BBX 2 14 2 -1
BITMAP
C0
C0
C0
C0
C0
C0
00
00
C0
C0
C0
C0
C0
C0
ENDCHAR

STARTCHAR braceright
ENCODING 125
SWIDTH 484 0
DWIDTH 8 0
BBX 6 16 1 -2
BITMAP
E0
30
30
30
30
30
10
0C
10
30
30
30
30
30
30
E0
ENDCHAR

STARTCHAR asciitilde
ENCODING 126
SWIDTH 726 0
DWIDTH 12 0
BBX 10 4 1 4
BITMAP
7040
FCC0
CFC0
8380
ENDCHAR

STARTCHAR C000177
ENCODING 127
SWIDTH 847 0
DWIDTH 14 0
BBX 14 19 0 -4
BITMAP
AAA8
5554
AAA8
5554
AAA8
5554
AAA8
5554
AAA8
5554
AAA8
5554
AAA8
5554
AAA8
5554
AAA8
5554
AAA8
ENDCHAR

STARTCHAR NoBreakSpace
ENCODING 160
SWIDTH 302 0
DWIDTH 5 0
BBX 1 1 0 0
BITMAP
00
ENDCHAR

STARTCHAR CyrillicIo
ENCODING 161
SWIDTH 544 0
DWIDTH 9 0
BBX 7 14 1 0
BITMAP
CC
CC
00
FE
C0
C0
C0
FE
C0
C0
C0
C0
C0
FE
ENDCHAR

STARTCHAR SerboCroatDje
ENCODING 162
SWIDTH 726 0
DWIDTH 12 0
BBX 11 12 0 0
BITMAP
FFC0
0C00
0C00
0C00
0C00
0FC0
0C60
0C60
0C60
0C60
0C60
0CC0
ENDCHAR

STARTCHAR MacedonianGje
ENCODING 163
SWIDTH 544 0
DWIDTH 9 0
BBX 7 15 1 0
BITMAP
18
30
00
FE
C0
C0
C0
C0
C0
C0
C0
C0
C0
C0
C0
ENDCHAR

STARTCHAR UkrainianIe
ENCODING 164
SWIDTH 726 0
DWIDTH 12 0
BBX 10 12 1 0
BITMAP
1F00
71C0
60C0
C000
C000
FE00
C000
C000
C000
60C0
71C0
1F00
ENDCHAR

STARTCHAR MacedonianDze
ENCODING 165
SWIDTH 665 0
DWIDTH 11 0
BBX 9 12 1 0
BITMAP
3C00
6700
C300
C000
E000
7C00
1F00
0380
0180
C180
E300
3E00
ENDCHAR

STARTCHAR ByeloRuUkrainI
ENCODING 166
SWIDTH 242 0
DWIDTH 4 0
BBX 2 12 1 0
BITMAP
C0
C0
C0
C0
C0
C0
C0
C0
C0
C0
C0
C0
ENDCHAR

STARTCHAR UkrainianYi
ENCODING 167
SWIDTH 363 0
DWIDTH 6 0
BBX 6 14 0 0
BITMAP
CC
CC
00
30
30
30
30
30
30
30
30
30
30
30
ENDCHAR

STARTCHAR CyrillicJe
ENCODING 168
SWIDTH 544 0
DWIDTH 9 0
BBX 7 12 1 0
BITMAP
06
06
06
06
06
06
06
06
06
C6
C6
7C
ENDCHAR

STARTCHAR CyrillicLje
ENCODING 169
SWIDTH 907 0
DWIDTH 15 0
BBX 13 12 1 0
BITMAP
3F00
6300
6300
6300
6300
63E0
6330
6318
6318
6318
6330
C3E0
ENDCHAR

STARTCHAR CyrillicNje
ENCODING 170
SWIDTH 847 0
DWIDTH 14 0
BBX 12 12 1 0
BITMAP
C600
C600
C600
C600
C600
FFC0
C660
C630
C630
C630
C660
C7C0
ENDCHAR

STARTCHAR SerboCroatTshe
ENCODING 171
SWIDTH 726 0
DWIDTH 12 0
BBX 11 12 0 0
BITMAP
FFC0
0C00
0C00
0C00
0C00
0FC0
0C60
0C60
0C60
0C60
0C60
0C60
ENDCHAR

STARTCHAR MacedonianKje
ENCODING 172
SWIDTH 665 0
DWIDTH 11 0
BBX 9 15 1 0
BITMAP
0C00
1800
0000
C180
C300
C600
CC00
D800
F000
F000
D800
CC00
C600
C300
C180
ENDCHAR

STARTCHAR SoftHyphen
ENCODING 173
SWIDTH 847 0
DWIDTH 14 0
BBX 10 2 2 5
BITMAP
FFC0
FFC0
ENDCHAR

STARTCHAR ByeloRusShortU
ENCODING 174
SWIDTH 665 0
DWIDTH 11 0
BBX 9 15 1 0
BITMAP
6300
3E00
0000
C180
C180
C180
C180
C180
C180
7F80
0180
0180
0180
C180
7F00
ENDCHAR

STARTCHAR CyrillicDzhe
ENCODING 175
SWIDTH 726 0
DWIDTH 12 0
BBX 10 14 1 -2
BITMAP
C0C0
C0C0
C0C0
C0C0
C0C0
C0C0
C0C0
C0C0
C0C0
C0C0
C0C0
FFC0
0C00
0C00
ENDCHAR

STARTCHAR CyrillicA
ENCODING 176
SWIDTH 726 0
DWIDTH 12 0
BBX 12 12 0 0
BITMAP
0600
0600
0F00
0F00
1980
1980
30C0
30C0
7FE0
6060
C030
C030
ENDCHAR

STARTCHAR CyrillicBe
ENCODING 177
SWIDTH 605 0
DWIDTH 10 0
BBX 8 12 1 0
BITMAP
FF
C0
C0
C0
C0
FC
C6
C3
C3
C3
C6
FC
ENDCHAR

STARTCHAR CyrillicVe
ENCODING 178
SWIDTH 605 0
DWIDTH 10 0
BBX 8 12 1 0
BITMAP
FC
C6
C3
C3
C6
FC
C6
C3
C3
C3
C6
FC
ENDCHAR

STARTCHAR CyrillicGhe
ENCODING 179
SWIDTH 544 0
DWIDTH 9 0
BBX 7 12 1 0
BITMAP
FE
C0
C0
C0
C0
C0
C0
C0
C0
C0
C0
C0
ENDCHAR

STARTCHAR CyrillicDe
ENCODING 180
SWIDTH 847 0
DWIDTH 14 0
BBX 12 14 1 -2
BITMAP
1FC0
30C0
30C0
30C0
30C0
30C0
30C0
30C0
30C0
30C0
30C0
FFF0
C030
C030
ENDCHAR

STARTCHAR CyrillicIe
ENCODING 181
SWIDTH 544 0
DWIDTH 9 0
BBX 7 12 1 0
BITMAP
FE
C0
C0
C0
C0
FE
C0
C0
C0
C0
C0
FE
ENDCHAR

STARTCHAR CyrillicZhe
ENCODING 182
SWIDTH 968 0
DWIDTH 16 0
BBX 14 12 1 0
BITMAP
C30C
6318
3330
1B60
0FC0
0780
0FC0
1B60
3330
6318
C30C
C30C
ENDCHAR

STARTCHAR CyrillicZe
ENCODING 183
SWIDTH 605 0
DWIDTH 10 0
BBX 8 12 1 0
BITMAP
3C
66
C3
C3
06
1C
06
03
C3
C3
66
3C
ENDCHAR

STARTCHAR CyrillicI
ENCODING 184
SWIDTH 726 0
DWIDTH 12 0
BBX 10 12 1 0
BITMAP
C0C0
C1C0
C3C0
C3C0
C6C0
CCC0
CCC0
D8C0
F0C0
E0C0
E0C0
C0C0
ENDCHAR

STARTCHAR CyrillicShortI
ENCODING 185
SWIDTH 726 0
DWIDTH 12 0
BBX 10 15 1 0
BITMAP
3300
1E00
0000
C0C0
C1C0
C3C0
C3C0
C6C0
CCC0
CCC0
D8C0
F0C0
E0C0
E0C0
C0C0
ENDCHAR

STARTCHAR CyrillicKa
ENCODING 186
SWIDTH 665 0
DWIDTH 11 0
BBX 9 12 1 0
BITMAP
C180
C300
C600
CC00
D800
F000
F000
D800
CC00
C600
C300
C180
ENDCHAR

STARTCHAR CyrillicEl
ENCODING 187
SWIDTH 665 0
DWIDTH 11 0
BBX 9 12 1 0
BITMAP
3F80
6180
6180
6180
6180
6180
6180
6180
6180
6180
6180
C180
ENDCHAR

STARTCHAR CyrillicEm
ENCODING 188
SWIDTH 847 0
DWIDTH 14 0
BBX 12 12 1 0
BITMAP
C030
C030
E070
E070
F0F0
D0B0
D9B0
C930
CF30
C630
C630
C030
ENDCHAR

STARTCHAR CyrillicEn
ENCODING 189
SWIDTH 665 0
DWIDTH 11 0
BBX 9 12 1 0
BITMAP
C180
C180
C180
C180
C180
FF80
C180
C180
C180
C180
C180
C180
ENDCHAR

STARTCHAR CyrillicO
ENCODING 190
SWIDTH 786 0
DWIDTH 13 0
BBX 11 12 1 0
BITMAP
1F00
71C0
60C0
C060
C060
C060
C060
C060
C060
60C0
71C0
1F00
ENDCHAR

STARTCHAR CyrillicPe
ENCODING 191
SWIDTH 665 0
DWIDTH 11 0
BBX 9 12 1 0
BITMAP
FF80
C180
C180
C180
C180
C180
C180
C180
C180
C180
C180
C180
ENDCHAR

STARTCHAR CyrillicEr
ENCODING 192
SWIDTH 605 0
DWIDTH 10 0
BBX 8 12 1 0
BITMAP
FC
C6
C3
C3
C3
C6
FC
C0
C0
C0
C0
C0
ENDCHAR

STARTCHAR CyrillicEs
ENCODING 193
SWIDTH 726 0
DWIDTH 12 0
BBX 10 12 1 0
BITMAP
1F00
71C0
60C0
C000
C000
C000
C000
C000
C000
60C0
71C0
1F00
ENDCHAR

STARTCHAR CyrillicTe
ENCODING 194
SWIDTH 605 0
DWIDTH 10 0
BBX 10 12 0 0
BITMAP
FFC0
0C00
0C00
0C00
0C00
0C00
0C00
0C00
0C00
0C00
0C00
0C00
ENDCHAR

STARTCHAR CyrillicU
ENCODING 195
SWIDTH 665 0
DWIDTH 11 0
BBX 9 12 1 0
BITMAP
C180
C180
C180
C180
C180
C180
7F80
0180
0180
0180
C180
7F00
ENDCHAR

STARTCHAR CyrillicEf
ENCODING 196
SWIDTH 968 0
DWIDTH 16 0
BBX 14 12 1 0
BITMAP
0300
3FF0
6318
C30C
C30C
C30C
C30C
C30C
6318
3FF0
0300
0300
ENDCHAR

STARTCHAR CyrillicHa
ENCODING 197
SWIDTH 786 0
DWIDTH 13 0
BBX 13 12 0 0
BITMAP
C018
6030
3060
18C0
0D80
0700
0700
0D80
18C0
3060
6030
C018
ENDCHAR

STARTCHAR CyrillicTse
ENCODING 198
SWIDTH 726 0
DWIDTH 12 0
BBX 10 14 1 -2
BITMAP
C180
C180
C180
C180
C180
C180
C180
C180
C180
C180
C180
FFC0
00C0
00C0
ENDCHAR

STARTCHAR CyrillicChe
ENCODING 199
SWIDTH 665 0
DWIDTH 11 0
BBX 9 12 1 0
BITMAP
C180
C180
C180
C180
C180
C180
7F80
0180
0180
0180
0180
0180
ENDCHAR

STARTCHAR CyrillicSha
ENCODING 200
SWIDTH 726 0
DWIDTH 12 0
BBX 10 12 1 0
BITMAP
CCC0
CCC0
CCC0
CCC0
CCC0
CCC0
CCC0
CCC0
CCC0
CCC0
CCC0
FFC0
ENDCHAR

STARTCHAR CyrillicShcha
ENCODING 201
SWIDTH 786 0
DWIDTH 13 0
BBX 11 14 1 -2
BITMAP
CCC0
CCC0
CCC0
CCC0
CCC0
CCC0
CCC0
CCC0
CCC0
CCC0
CCC0
FFE0
0060
0060
ENDCHAR

STARTCHAR CyrillHardSign
ENCODING 202
SWIDTH 726 0
DWIDTH 12 0
BBX 10 12 1 0
BITMAP
F000
3000
3000
3000
3000
3F00
3180
30C0
30C0
30C0
3180
3F00
ENDCHAR

STARTCHAR CyrillicYeru
ENCODING 203
SWIDTH 786 0
DWIDTH 13 0
BBX 11 12 1 0
BITMAP
C060
C060
C060
C060
C060
FC60
C660
C360
C360
C360
C660
FC60
ENDCHAR

STARTCHAR CyrillSoftSign
ENCODING 204
SWIDTH 605 0
DWIDTH 10 0
BBX 8 12 1 0
BITMAP
C0
C0
C0
C0
C0
FC
C6
C3
C3
C3
C6
FC
ENDCHAR

STARTCHAR CyrillicE
ENCODING 205
SWIDTH 726 0
DWIDTH 12 0
BBX 10 12 1 0
BITMAP
3E00
E380
C180
00C0
00C0
1FC0
00C0
00C0
00C0
C180
E380
3E00
ENDCHAR

STARTCHAR CyrillicYu
ENCODING 206
SWIDTH 1028 0
DWIDTH 17 0
BBX 15 12 1 0
BITMAP
C1F0
C71C
C60C
CC06
CC06
CC06
FC06
CC06
CC06
C60C
C71C
C1F0
ENDCHAR

STARTCHAR CyrillicYa
ENCODING 207
SWIDTH 605 0
DWIDTH 10 0
BBX 8 12 1 0
BITMAP
3F
63
C3
C3
C3
63
7F
1B
33
63
C3
C3
ENDCHAR

STARTCHAR cyrillicA
ENCODING 208
SWIDTH 544 0
DWIDTH 9 0
BBX 7 8 1 0
BITMAP
3C
66
06
7E
C6
C6
CE
76
ENDCHAR

STARTCHAR cyrillicBe
ENCODING 209
SWIDTH 605 0
DWIDTH 10 0
BBX 8 12 1 0
BITMAP
04
7C
60
C0
DC
E6
C3
C3
C3
C3
66
3C
ENDCHAR

STARTCHAR cyrillicVe
ENCODING 210
SWIDTH 544 0
DWIDTH 9 0
BBX 7 8 1 0
BITMAP
FC
C6
C6
FC
C6
C6
C6
FC
ENDCHAR

STARTCHAR cyrillicGhe
ENCODING 211
SWIDTH 423 0
DWIDTH 7 0
BBX 6 8 1 0
BITMAP
FC
C0
C0
C0
C0
C0
C0
C0
ENDCHAR

STARTCHAR cyrillicDe
ENCODING 212
SWIDTH 786 0
DWIDTH 13 0
BBX 11 10 1 -2
BITMAP
1F80
3180
3180
3180
3180
3180
3180
FFE0
C060
C060
ENDCHAR

STARTCHAR cyrillicIe
ENCODING 213
SWIDTH 605 0
DWIDTH 10 0
BBX 8 8 1 0
BITMAP
3C
66
C3
FF
C0
C0
63
3E
ENDCHAR

STARTCHAR cyrillicZhe
ENCODING 214
SWIDTH 847 0
DWIDTH 14 0
BBX 12 8 1 0
BITMAP
C630
6660
36C0
1F80
1F80
36C0
6660
C630
ENDCHAR

STARTCHAR cyrillicZe
ENCODING 215
SWIDTH 544 0
DWIDTH 9 0
BBX 7 8 1 0
BITMAP
7C
C6
06
1C
06
06
C6
7C
ENDCHAR

STARTCHAR cyrillicI
ENCODING 216
SWIDTH 605 0
DWIDTH 10 0
BBX 8 8 1 0
BITMAP
C3
C7
CF
CB
D3
F3
E3
C3
ENDCHAR

STARTCHAR cyrillicShortI
ENCODING 217
SWIDTH 605 0
DWIDTH 10 0
BBX 8 12 1 0
BITMAP
66
3C
00
00
C3
C7
CF
CB
D3
F3
E3
C3
ENDCHAR

STARTCHAR cyrillicKa
ENCODING 218
SWIDTH 544 0
DWIDTH 9 0
BBX 7 8 1 0
BITMAP
C6
CC
D8
F0
F0
D8
CC
C6
ENDCHAR

STARTCHAR cyrillicEl
ENCODING 219
SWIDTH 665 0
DWIDTH 11 0
BBX 8 8 1 0
BITMAP
3F
63
63
63
63
63
63
C3
ENDCHAR

STARTCHAR cyrillicEm
ENCODING 220
SWIDTH 786 0
DWIDTH 13 0
BBX 11 8 1 0
BITMAP
C060
E0E0
F1E0
DB60
CE60
C460
C060
C060
ENDCHAR

STARTCHAR cyrillicEn
ENCODING 221
SWIDTH 605 0
DWIDTH 10 0
BBX 8 8 1 0
BITMAP
C3
C3
C3
FF
C3
C3
C3
C3
ENDCHAR

STARTCHAR cyrillicO
ENCODING 222
SWIDTH 605 0
DWIDTH 10 0
BBX 8 8 1 0
BITMAP
3C
66
C3
C3
C3
C3
66
3C
ENDCHAR

STARTCHAR cyrillicPe
ENCODING 223
SWIDTH 605 0
DWIDTH 10 0
BBX 8 8 1 0
BITMAP
FF
C3
C3
C3
C3
C3
C3
C3
ENDCHAR

STARTCHAR cyrillicEr
ENCODING 224
SWIDTH 605 0
DWIDTH 10 0
BBX 8 11 1 -3
BITMAP
DC
E6
C3
C3
C3
C3
E6
DC
C0
C0
C0
ENDCHAR

STARTCHAR cyrillicEs
ENCODING 225
SWIDTH 544 0
DWIDTH 9 0
BBX 7 8 1 0
BITMAP
3C
66
C2
C0
C0
C2
66
3C
ENDCHAR

STARTCHAR cyrillicTe
ENCODING 226
SWIDTH 484 0
DWIDTH 8 0
BBX 8 8 0 0
BITMAP
FF
18
18
18
18
18
18
18
ENDCHAR

STARTCHAR cyrillicU
ENCODING 227
SWIDTH 605 0
DWIDTH 10 0
BBX 8 11 1 -3
BITMAP
C3
C3
66
66
3C
3C
18
18
30
70
60
ENDCHAR

STARTCHAR cyrillicEf
ENCODING 228
SWIDTH 847 0
DWIDTH 14 0
BBX 12 12 1 -3
BITMAP
0600
3FC0
6660
C630
C630
C630
C630
6660
3FC0
0600
0600
0600
ENDCHAR

STARTCHAR cyrillicHa
ENCODING 229
SWIDTH 544 0
DWIDTH 9 0
BBX 9 8 0 0
BITMAP
C180
6300
3600
1C00
1C00
3600
6300
C180
ENDCHAR

STARTCHAR cyrillicTse
ENCODING 230
SWIDTH 665 0
DWIDTH 11 0
BBX 9 10 1 -2
BITMAP
C300
C300
C300
C300
C300
C300
C300
FF80
0180
0180
ENDCHAR

STARTCHAR cyrillicChe
ENCODING 231
SWIDTH 605 0
DWIDTH 10 0
BBX 8 8 1 0
BITMAP
C3
C3
C3
C3
7F
03
03
03
ENDCHAR

STARTCHAR cyrillicSha
ENCODING 232
SWIDTH 726 0
DWIDTH 12 0
BBX 10 8 1 0
BITMAP
CCC0
CCC0
CCC0
CCC0
CCC0
CCC0
CCC0
FFC0
ENDCHAR

STARTCHAR cyrillicShcha
ENCODING 233
SWIDTH 786 0
DWIDTH 13 0
BBX 11 10 1 -2
BITMAP
CCC0
CCC0
CCC0
CCC0
CCC0
CCC0
CCC0
FFE0
0060
0060
ENDCHAR

STARTCHAR cyrillHardSign
ENCODING 234
SWIDTH 665 0
DWIDTH 11 0
BBX 9 8 1 0
BITMAP
F000
3000
3000
3F00
3180
3180
3180
3F00
ENDCHAR

STARTCHAR cyrillicYeru
ENCODING 235
SWIDTH 726 0
DWIDTH 12 0
BBX 10 8 1 0
BITMAP
C0C0
C0C0
C0C0
FCC0
C6C0
C6C0
C6C0
FCC0
ENDCHAR

STARTCHAR cyrillSoftSign
ENCODING 236
SWIDTH 544 0
DWIDTH 9 0
BBX 7 8 1 0
BITMAP
C0
C0
C0
FC
C6
C6
C6
FC
ENDCHAR

STARTCHAR cyrillicE
ENCODING 237
SWIDTH 544 0
DWIDTH 9 0
BBX 7 8 1 0
BITMAP
78
CC
86
3E
06
86
CC
78
ENDCHAR

STARTCHAR cyrillicYu
ENCODING 238
SWIDTH 786 0
DWIDTH 13 0
BBX 11 8 1 0
BITMAP
C780
CCC0
D860
D860
F860
D860
CCC0
C780
ENDCHAR

STARTCHAR cyrillicYa
ENCODING 239
SWIDTH 544 0
DWIDTH 9 0
BBX 7 8 1 0
BITMAP
7E
C6
C6
C6
7E
36
66
C6
ENDCHAR

STARTCHAR NumberAcronym
ENCODING 240
SWIDTH 1028 0
DWIDTH 17 0
BBX 15 12 1 0
BITMAP
C0C0
E0CC
F0D2
F0D2
D8D2
CCCC
CCC0
C6C0
C3DE
C1C0
C1C0
C0C0
ENDCHAR

STARTCHAR cyrillicIo
ENCODING 241
SWIDTH 605 0
DWIDTH 10 0
BBX 8 12 1 0
BITMAP
66
66
00
00
3C
66
C3
FF
C0
C0
63
3E
ENDCHAR

STARTCHAR serboCroatDje
ENCODING 242
SWIDTH 605 0
DWIDTH 10 0
BBX 9 14 0 -2
BITMAP
6000
6000
F800
6000
6F00
7180
6180
6180
6180
6180
6180
6180
0180
0300
ENDCHAR

STARTCHAR macedonianGje
ENCODING 243
SWIDTH 423 0
DWIDTH 7 0
BBX 6 12 1 0
BITMAP
18
30
00
00
FC
C0
C0
C0
C0
C0
C0
C0
ENDCHAR

STARTCHAR ukrainianIe
ENCODING 244
SWIDTH 544 0
DWIDTH 9 0
BBX 7 8 1 0
BITMAP
3C
66
C2
F8
C0
C2
66
3C
ENDCHAR

STARTCHAR macedonianDze
ENCODING 245
SWIDTH 544 0
DWIDTH 9 0
BBX 7 8 1 0
BITMAP
7C
C6
E0
78
1C
0E
C6
7C
ENDCHAR

STARTCHAR byeloRuUkrainI
ENCODING 246
SWIDTH 242 0
DWIDTH 4 0
BBX 2 12 1 0
BITMAP
C0
C0
00
00
C0
C0
C0
C0
C0
C0
C0
C0
ENDCHAR

STARTCHAR ukrainianYi
ENCODING 247
SWIDTH 363 0
DWIDTH 6 0
BBX 6 11 0 0
BITMAP
CC
CC
00
30
30
30
30
30
30
30
30
ENDCHAR

STARTCHAR cyrillicJe
ENCODING 248
SWIDTH 302 0
DWIDTH 5 0
BBX 3 15 1 -3
BITMAP
60
60
00
00
60
60
60
60
60
60
60
60
60
60
C0
ENDCHAR

STARTCHAR cyrillicLje
ENCODING 249
SWIDTH 786 0
DWIDTH 13 0
BBX 11 8 1 0
BITMAP
3E00
6600
6600
67C0
6660
6660
6660
C7C0
ENDCHAR

STARTCHAR cyrillicNje
ENCODING 250
SWIDTH 726 0
DWIDTH 12 0
BBX 10 8 1 0
BITMAP
CC00
CC00
CC00
FF80
CCC0
CCC0
CCC0
CF80
ENDCHAR

STARTCHAR serboCroatTshe
ENCODING 251
SWIDTH 605 0
DWIDTH 10 0
BBX 9 12 0 0
BITMAP
6000
6000
F800
6000
6F00
7180
6180
6180
6180
6180
6180
6180
ENDCHAR

STARTCHAR macedonianKje
ENCODING 252
SWIDTH 544 0
DWIDTH 9 0
BBX 7 12 1 0
BITMAP
18
30
00
00
C6
CC
D8
F0
F0
D8
CC
C6
ENDCHAR

STARTCHAR ParagraphSign
ENCODING 253
SWIDTH 484 0
DWIDTH 8 0
BBX 6 14 1 -2
BITMAP
78
CC
C4
60
F0
98
8C
C4
64
3C
18
8C
CC
78
ENDCHAR

STARTCHAR byeloRusShortU
ENCODING 254
SWIDTH 605 0
DWIDTH 10 0
BBX 8 15 1 -3
BITMAP
66
3C
00
00
C3
C3
66
66
3C
3C
18
18
30
70
60
ENDCHAR

STARTCHAR cyrillicDzhe
ENCODING 255
SWIDTH 605 0
DWIDTH 10 0
BBX 8 10 1 -2
BITMAP
C3
C3
C3
C3
C3
C3
C3
FF
18
18
ENDCHAR
ENDFONT
